<?xml version="1.0" standalone="no"?>
<!DOCTYPE svg PUBLIC "-//W3C//DTD SVG 20010904//EN"
 "http://www.w3.org/TR/2001/REC-SVG-20010904/DTD/svg10.dtd">
<svg version="1.0" xmlns="http://www.w3.org/2000/svg"
 width="133.000000pt" height="178.000000pt" viewBox="0 0 133.000000 178.000000"
 preserveAspectRatio="xMidYMid meet">
<metadata>
Created by potrace 1.16, written by Peter Selinger 2001-2019
</metadata>
<g transform="translate(0.000000,178.000000) scale(0.100000,-0.100000)"
fill="#000000" stroke="none">
<path d="M360 1259 c-194 -286 -354 -528 -356 -537 -3 -13 128 -106 515 -367
286 -192 526 -351 534 -353 11 -2 259 337 274 375 4 10 -56 13 -296 13 l-301
0 0 35 c0 31 3 35 25 35 14 0 25 5 25 10 0 6 8 10 18 10 28 0 99 55 117 90 29
57 87 31 82 -36 -2 -28 0 -29 43 -29 l45 0 3 183 2 183 -47 -3 c-45 -3 -48 -5
-48 -31 -1 -56 -50 -62 -97 -11 -18 19 -45 42 -60 50 -22 12 -28 22 -28 49 l0
35 61 0 60 0 -3 53 -3 52 -97 3 -98 3 0 354 c0 200 -4 355 -9 355 -5 0 -167
-234 -361 -521z m505 -249 c0 -22 -5 -25 -37 -28 l-38 -3 0 -74 c0 -65 2 -74
20 -80 11 -3 35 -24 53 -46 l34 -39 81 0 82 0 0 -55 0 -55 -86 0 c-83 0 -86
-1 -111 -30 -14 -17 -38 -37 -54 -45 -32 -17 -89 -20 -89 -5 0 6 15 10 34 10
33 0 96 35 104 58 3 9 -15 12 -67 12 l-71 0 0 55 0 55 75 0 c73 0 75 1 65 20
-16 29 -54 51 -100 57 l-40 6 2 91 2 91 3 -82 c3 -75 6 -83 23 -83 18 0 20 7
20 80 l0 80 40 0 c22 0 40 5 40 10 0 6 -28 10 -65 10 -38 0 -65 4 -65 10 0 7
27 10 73 8 69 -3 72 -4 72 -28z"/>
</g>
</svg>
